<svg width="985" height="347" viewBox="0 0 985 347" fill="none" xmlns="http://www.w3.org/2000/svg">
<path d="M419.423 61.1311C414.695 64.457 410.164 67.8807 406.224 72.0869C384.75 94.5854 363.77 117.671 343.183 141.05C294.918 196.122 248.622 253.151 191.196 299.615C157.016 327.298 119.98 348.036 73.5861 346.96C28.9651 345.982 0.596899 321.233 0.00589385 280.736C-0.289609 257.651 10.5455 239.358 28.2756 225.566C66.297 195.829 110.622 186.536 158.1 189.373C167.851 189.96 175.436 193.774 175.337 204.828C175.337 214.414 166.275 221.262 154.751 220.284C140.961 219.11 127.368 216.469 113.676 215.393C88.9522 213.534 64.918 217.056 42.4598 228.011C28.2756 234.957 17.0465 245.032 13.1065 260.683C5.81745 289.54 24.9266 311.647 57.3334 312.234C97.3248 313.017 132.982 298.637 167.95 281.714C227.937 252.76 272.755 207.078 313.633 156.31C339.144 124.616 366.725 94.4876 394.502 64.8482C407.701 50.7622 424.052 39.513 444.442 38.2413C449.958 37.85 459.217 41.2737 460.99 45.3821C464.536 53.5012 457.345 57.2183 449.761 60.5442C442.57 63.6744 434.986 68.6632 430.455 74.9237C390.069 132.246 359.534 193.97 349.684 264.107C346.039 290.127 362.686 304.017 386.425 292.377C401.2 285.138 415.089 272.128 424.348 258.433C443.654 229.674 459.512 198.763 476.947 168.733C506.3 118.16 540.283 71.3043 588.549 36.3827C633.761 3.61318 683.306 -9.39683 738.368 7.23251C744.771 9.1889 752.06 13.8842 755.015 19.46C757.084 23.3727 754.424 32.5678 750.681 36.1871C747.135 39.6108 738.959 40.8824 733.64 39.6108C714.531 35.0133 696.112 26.6008 676.805 23.764C636.322 17.6992 601.846 32.8612 575.251 62.1093C554.172 85.3904 535.457 111.019 517.628 136.941C486.797 181.743 458.133 227.914 427.401 272.813C417.453 287.388 404.648 300.3 391.941 312.821C384.652 320.06 375.59 326.418 366.035 330.722C338.849 343.047 313.042 325.635 317.868 296.485C322.005 271.639 328.211 246.01 339.538 223.805C365.74 172.743 383.765 141.832 412.134 91.9443C414.99 86.8577 418.339 82.0645 421.491 77.1735C423.757 73.5542 426.121 70.0327 428.386 66.4134C429.765 64.2613 434.493 59.4682 432.523 57.414C430.061 54.7728 422.181 59.2725 419.127 61.3267L419.423 61.1311Z" fill="#EFE8DF"/>
<path d="M773.041 186.536C803.577 146.234 831.157 109.747 858.836 73.3584C863.268 67.4893 866.913 60.055 872.921 56.8269C878.634 53.7945 888.681 52.3272 893.409 55.3596C901.289 60.4462 898.334 69.1522 892.03 75.3148C870.656 96.1504 847.803 115.714 828.005 137.822C804.168 164.428 782.497 192.796 760.729 221.066C755.016 228.402 751.371 237.793 748.613 246.89C744.181 261.27 754.72 272.03 768.116 265.574C784.763 257.553 800.523 246.695 814.904 234.859C830.467 222.044 842.681 205.317 858.54 193.09C872.035 182.623 888.09 174.602 904.146 168.146C909.465 165.994 915.375 164.526 921.088 165.7C929.362 167.461 932.711 174.406 937.833 180.177C936.553 178.808 958.321 154.647 962.557 177.438C963.641 183.503 961.08 188.492 957.238 192.992C952.51 198.47 946.698 202.774 941.675 207.86C932.022 217.545 921.876 227.033 912.814 237.304C906.707 244.151 900.6 252.857 907.791 261.759C915.375 271.15 926.013 268.019 934.189 262.639C947.979 253.64 959.799 243.271 972.9 233.196C976.249 230.555 982.848 222.24 984.326 225.37C985.409 227.229 944.728 273.889 915.178 287.583C911.041 289.54 906.51 291.007 901.979 291.594C885.825 293.746 879.127 283.279 883.067 261.172C872.429 268.802 863.071 277.801 851.842 282.692C842.484 286.801 830.27 288.953 820.42 286.899C807.615 284.257 804.759 272.813 807.714 251.488C797.371 260.096 788.013 268.802 777.671 276.138C769.889 281.616 761.221 286.507 752.258 289.735C732.951 296.778 720.146 286.214 722.707 266.161C723.2 262.639 724.086 259.216 724.579 257.064C710.001 266.846 695.521 277.899 679.662 286.703C668.433 292.963 655.037 292.572 647.748 280.345C643.316 272.91 643.316 262.835 641.543 254.912C631.988 262.346 620.463 271.345 608.939 280.247C607.166 281.616 605.097 282.79 603.029 283.768C591.406 288.953 579.29 297.659 567.174 287.094C556.044 277.508 564.121 266.161 568.652 253.249C558.211 261.661 550.134 269.487 540.875 275.258C530.828 281.519 520.19 287.486 508.96 290.909C494.678 295.213 484.335 283.964 488.177 269.682C489.753 263.618 492.314 257.455 495.663 252.173C511.226 227.424 527.183 202.872 543.337 178.514C545.8 174.797 549.05 170.298 552.892 169.124C557.423 167.754 564.219 168.048 567.765 170.591C570.425 172.548 571.213 180.08 569.637 183.699C567.175 189.275 562.249 193.97 557.817 198.568C544.716 212.067 530.926 224.881 518.22 238.674C512.506 244.934 507.089 253.444 514.082 262.052C521.273 270.954 532.01 269.193 539.2 263.618C557.324 249.825 575.35 235.543 590.815 219.11C602.241 206.98 609.53 191.035 618.986 177.047C624.502 168.928 632.087 161.787 641.74 169.711C651.688 177.928 644.498 186.34 637.997 192.992C624.6 206.784 610.121 219.697 597.02 233.685C589.633 241.51 580.078 251.292 589.337 262.248C598.892 273.497 611.697 267.041 620.463 260.194C637.701 246.597 652.87 230.652 669.714 216.664C687.937 201.502 706.947 187.22 726.253 173.428C731.572 169.613 738.96 167.95 745.757 166.972C758.463 165.015 770.677 165.504 772.943 186.634H773.041V186.536ZM928.673 187.318C928.771 173.428 922.172 168.146 910.647 172.547C876.664 185.264 851.744 208.154 840.12 242.586C838.052 248.651 838.938 259.803 846.72 264.009C849.576 266.846 861.2 264.791 866.42 261.27C888.78 246.303 907.298 227.424 920.103 203.654C923.452 197.394 926.703 190.938 928.574 187.416L928.673 187.318ZM675.328 244.641C675.033 264.204 685.967 272.03 699.56 264.302C728.913 247.575 747.628 221.066 763.093 192.307C768.313 182.525 761.024 174.113 749.303 175.482C742.605 176.265 735.808 178.71 729.799 181.84C709.705 192.209 693.945 207.371 682.716 226.74C678.973 233.293 676.904 240.826 675.328 244.641Z" fill="#EFE8DF"/>
</svg>