<svg width="175" height="64" viewBox="0 0 175 64" fill="none" xmlns="http://www.w3.org/2000/svg">
<g id="Nuda" clip-path="url(#clip0_4_7)">
<g id="Vector">
<path fill-rule="evenodd" clip-rule="evenodd" d="M108.862 5.99807C116.044 1.96527 123.771 5.73215 130.96 7.40867C141.109 2.60629 123.844 -0.855927 119.603 0.186613C115.937 0.804741 112.568 1.96351 109.457 3.54669C109.288 3.57311 109.154 3.64355 109.055 3.75273C95.3859 10.9149 86.742 26.2871 79.8079 39.8102C67.4733 63.1705 55.6018 57.6936 65.686 33.1992C66.1157 32.0545 74.1609 18.4275 78.7848 11.8095C79.4751 11.1667 81.4859 8.42479 80.1935 7.40691C79.2955 6.81344 77.5311 6.99835 76.6718 7.58301C72.7628 8.59738 40.7597 46.2732 30.2353 51.7202C24.826 54.728 18.6103 57.8592 14.8826 58.1585C11.1531 58.4562 3.94431 57.6619 2.26096 52.3577C1.48619 49.9151 2.90542 46.3366 3.41078 45.5706C4.06581 44.6196 4.93918 43.6616 6.06259 42.7159C10.9806 39.826 17.0484 38.9614 22.6126 39.9564C23.0405 40.0462 23.7519 40.1835 24.3752 40.3385C24.3752 40.3385 24.3717 40.3385 24.3699 40.3367C24.3699 40.3367 24.3735 40.3367 24.3752 40.3367C28.1434 41.2173 31.371 39.3365 31.3516 37.512C31.3411 36.5294 30.3884 35.5643 28.073 35.0554C25.6113 34.5623 19.1614 35.3547 16.6276 35.9359C16.6328 35.9359 16.6364 35.9359 16.6417 35.9359C9.72159 37.4557 3.34915 40.9848 0.604019 47.7349C0.604019 47.7349 0.604019 47.7349 0.604019 47.7367C0.604019 47.7367 0.604019 47.7367 0.604019 47.7349C0.0757705 49.2688 -0.225331 51.4648 0.20255 53.6133C0.781863 57.4224 2.90542 60.9304 6.06259 62.3516C6.35841 62.6175 8.58234 63.5174 9.23208 63.5843C12.1903 64.1408 15.7454 64.1391 18.561 63.5773C20.4996 63.1899 26.2065 61.0467 30.2106 58.074C42.5399 48.9254 60.1042 26.7062 69.1549 16.0343C70.4121 14.6395 73.7894 10.6296 75.4498 10.6085C75.9746 10.6014 76.8303 11.2971 76.4377 12.0895C74.8036 14.0901 59.1128 39.775 57.4453 48.2615C56.5773 51.5053 56.2673 54.0694 56.3836 56.047C56.3871 56.3253 56.41 56.5965 56.4575 56.8554C57.6373 65.96 69.1954 60.4303 75.2297 50.903C85.7137 36.4783 93.7167 16.1681 108.863 5.99807H108.862Z" fill="#1B1B1B"/>
<path fill-rule="evenodd" clip-rule="evenodd" d="M174.928 41.5712C171.346 44.1336 168.702 47.3933 164.814 49.1913C164.453 49.3163 163.919 49.4061 163.488 49.3075C157.436 48.2738 164.233 41.0482 167.004 38.9279C169.667 36.9538 170.876 34.6274 171.054 32.9949C171.075 32.847 171.095 32.6815 171.073 32.4261C170.987 30.607 169.353 30.0874 167.002 32.9421C165.837 32.2659 165.148 30.975 163.731 30.6387C161.053 30.0786 157.545 32.3275 156.587 32.965C149.116 37.4046 144.473 46.0108 136.012 49.1437C135.598 49.2529 135.197 49.2758 134.702 49.2688C131.742 48.8796 133.457 42.966 135.043 41.0429C140.835 33.0073 146.894 25.2463 153.972 18.3254C156.119 16.8074 164.007 9.65753 156.261 10.0485C155.826 10.0943 155.474 10.2704 155.205 10.5768C155.49 10.5627 155.733 10.4905 155.937 10.3567C152.372 13.7449 149.406 17.7548 146.543 21.8774C146.427 22.006 146.33 22.1469 146.253 22.2966C143.42 26.391 140.669 30.5753 137.508 34.3509C136.956 32.4525 135.808 31.1582 134.938 30.7619C133.8 30.2724 132.421 30.4696 130.888 31.137C130.499 31.248 130.24 31.3941 129.879 31.6284C120.885 36.4624 107.493 54.7069 104.491 47.7261C104.259 46.9653 104.261 46.2063 104.493 45.4455C104.488 45.4526 104.482 45.4596 104.477 45.4684C106.553 40.1694 116.563 35.3266 114.706 32.0616C110.152 27.2927 107.849 38.6373 104.757 40.8686C102.873 42.5557 97.5218 48.2773 94.1076 49.2917C93.8892 49.3022 93.3927 49.3885 92.8732 49.4237C91.5896 49.4466 90.0189 48.1382 91.1106 45.8013C93.4015 41.2895 98.1962 38.4841 101.147 34.2664C101.725 33.6712 101.537 31.9172 100.866 31.3484C100.043 30.651 98.3917 31.0014 97.9796 31.3607C96.0445 32.9685 94.9088 35.5872 93.5793 37.4363C89.6316 42.8392 86.5008 47.358 86.1645 50.2902C85.9761 51.935 87.3037 53.1713 88.3109 53.5622C88.7723 53.7242 89.6738 53.7647 90.3905 53.5657C91.2392 53.3597 92.2517 52.9406 93.4314 52.2854C93.3399 52.3894 93.9931 51.9808 93.9421 51.9931C95.7874 50.9065 98.0096 49.2829 100.623 47.034C100.832 47.2453 100.83 47.4813 100.623 47.7384C100.704 47.7279 99.6049 50.1616 99.9183 50.8203C100.86 54.6769 103.671 54.1856 106.546 52.5831C106.509 52.613 107.067 52.2925 107.277 52.1534C109.395 50.8502 111.468 49.0944 112.772 48.1787C113.315 47.786 113.848 47.3704 114.088 47.4373C114.487 47.5482 114.396 48.3372 114.553 49.3604C114.616 49.7002 114.639 49.9644 114.708 50.2057C117.372 59.474 126.017 47.0868 128.792 48.2685C127.646 59.2416 139.343 50.5913 143.36 46.8861C144.006 47.1714 142.897 49.3797 143.726 50.6635C143.932 50.8889 144.642 51.9667 145.832 52.539C146.857 53.0321 147.982 52.974 148.692 52.8472C152.599 52.0195 154.409 49.5382 157.144 48.2685C156.779 51.6215 157.527 53.2188 158.897 53.6503C159.535 53.9743 160.313 53.7577 161.077 53.5781C163.12 53.1026 171.639 46.3754 174.528 42.7687C174.981 42.2034 175.095 41.4691 174.928 41.5748V41.5712ZM120.254 44.3889C122.408 38.3785 126.734 34.557 132.316 32.4138C144.767 31.0895 118.516 60.3722 120.254 44.3889ZM153.446 48.4393C150.648 48.9518 149.523 48.0519 149.387 46.5163C149.384 45.9422 149.438 45.3751 149.551 44.8168C150.107 42.4711 151.868 39.5302 153.497 37.5173C153.993 36.8868 154.985 35.8813 155.381 35.5837C157.501 33.7997 166.585 28.1027 164.977 35.2315C162.403 40.4477 158.675 45.7344 153.444 48.4393H153.446Z" fill="#1B1B1B"/>
</g>
</g>
<defs>
<clipPath id="clip0_4_7">
<rect width="175" height="64" fill="white"/>
</clipPath>
</defs>
</svg>
